  0
SECTION
  2
HEADER
  9
$ACADVER
  1
AC1009
  9
$INSBASE
  10
0.0
  20
0.0
  30
0.0
  9
$EXTMIN
  10
-800.0
  20
-800.0
  9
$EXTMAX
  10
800.0
  20
800.0
  9
$LIMMIN
  10
-800.0
  20
-800.0
  9
$LIMMAX
  10
800.0
  20
800.0
  0
ENDSEC
  0
SECTION
  2
CLASSES
  0
ENDSEC
  0
SECTION
  2
TABLES
  0
ENDSEC
  0
SECTION
  2
BLOCKS
  0
ENDSEC
  0
SECTION
  2
ENTITIES
  0
LINE
  100
AcDbEntity
  8
0
  100
AcDbLine
  10
0.0
  20
0.0
  30
0.0
  11
0.0
  21
769.5998296422179
  31
0.0
  39
0.0
  210
0.0
  220
0.0
  230
1.0
  0
LINE
  100
AcDbEntity
  8
0
  100
AcDbLine
  10
0.0
  20
0.0
  30
0.0
  11
1332.0352851220723
  21
0.0
  31
0.0
  39
0.0
  210
0.0
  220
0.0
  230
1.0
  0
LINE
  100
AcDbEntity
  8
0
  100
AcDbLine
  10
1332.0352851220723
  20
0.0
  30
0.0
  11
1332.0352851220723
  21
769.5998296422179
  31
0.0
  39
0.0
  210
0.0
  220
0.0
  230
1.0
  0
ARC
  100
AcDbEntity
  8
0
  100
AcDbArc
  10
3.6690390359614365E-7
  20
769.5996733194211
  30
0.0
  40
1.5632322736148913E-4
  50
-89.89241735977346
  51
90.13447818867914
  39
0.0
  210
0.0
  220
0.0
  230
1.0
  0
ARC
  100
AcDbEntity
  8
0
  100
AcDbArc
  10
-5.328055529245085
  20
3607.183474542619
  30
0.0
  40
2837.5889597166865
  50
-89.89241735981045
  51
-89.8655212398223
  39
0.0
  210
0.0
  220
0.0
  230
1.0
  0
ARC
  100
AcDbEntity
  8
0
  100
AcDbArc
  10
-1660.7255545575485
  20
35024.75318104424
  30
0.0
  40
34295.448607753
  50
-87.22219113168586
  51
-87.19529501169768
  39
0.0
  210
0.0
  220
0.0
  230
1.0
  0
ARC
  100
AcDbEntity
  8
0
  100
AcDbArc
  10
-1621.1118152457047
  20
34216.15231830022
  30
0.0
  40
33485.87797860899
  50
-87.19529501169768
  51
-87.16807570666538
  39
0.0
  210
0.0
  220
0.0
  230
1.0
  0
ARC
  100
AcDbEntity
  8
0
  100
AcDbArc
  10
-4643.705273890189
  20
34218.641880104784
  30
0.0
  40
33772.88649367931
  50
-82.03986566284233
  51
-82.01264635781003
  39
0.0
  210
0.0
  220
0.0
  230
1.0
  0
ARC
  100
AcDbEntity
  8
0
  100
AcDbArc
  10
-4367.534939216737
  20
32250.435801550786
  30
0.0
  40
31785.399331101773
  50
-82.01264635781003
  51
-81.98458896664276
  39
0.0
  210
0.0
  220
0.0
  230
1.0
  0
ARC
  100
AcDbEntity
  8
0
  100
AcDbArc
  10
-7413.381686605346
  20
32694.411066230987
  30
0.0
  40
32783.12476266125
  50
-76.81448584553519
  51
-76.78642845436792
  39
0.0
  210
0.0
  220
0.0
  230
1.0
  0
ARC
  100
AcDbEntity
  8
0
  100
AcDbArc
  10
-6830.136178480525
  20
30210.37791173534
  30
0.0
  40
30231.537798558053
  50
-76.78642845436792
  51
-76.75721100224649
  39
0.0
  210
0.0
  220
0.0
  230
1.0
  0
ARC
  100
AcDbEntity
  8
0
  100
AcDbArc
  10
-9937.603873673012
  20
30759.07235441859
  30
0.0
  40
31610.719932192027
  50
-71.495000374016
  51
-71.46578292189456
  39
0.0
  210
0.0
  220
0.0
  230
1.0
  0
ARC
  100
AcDbEntity
  8
0
  100
AcDbArc
  10
-9168.859250159747
  20
28466.08857316835
  30
0.0
  40
29192.30249153849
  50
-71.46578292189457
  51
-71.4353792974295
  39
0.0
  210
0.0
  220
0.0
  230
1.0
  0
ARC
  100
AcDbEntity
  8
0
  100
AcDbArc
  10
-12125.469215477513
  20
28461.820878186543
  30
0.0
  40
30259.771421484536
  50
-66.11824728937471
  51
-66.08784366490964
  39
0.0
  210
0.0
  220
0.0
  230
1.0
  0
ARC
  100
AcDbEntity
  8
0
  100
AcDbArc
  10
-11488.74034798446
  20
27025.783166050634
  30
0.0
  40
28688.90288421749
  50
-66.08784366490964
  51
-66.05661875375824
  39
0.0
  210
0.0
  220
0.0
  230
1.0
  0
ARC
  100
AcDbEntity
  8
0
  100
AcDbArc
  10
-14594.752304411815
  20
27114.54158425414
  30
0.0
  40
30161.05056580817
  50
-60.724728728136796
  51
-60.69350381698541
  39
0.0
  210
0.0
  220
0.0
  230
1.0
  0
ARC
  100
AcDbEntity
  8
0
  100
AcDbArc
  10
-14537.159397602867
  20
27011.93949100423
  30
0.0
  40
30043.389474303935
  50
-60.693503816985405
  51
-60.66221782139639
  39
0.0
  210
0.0
  220
0.0
  230
1.0
  0
ARC
  100
AcDbEntity
  8
0
  100
AcDbArc
  10
-17175.87784757754
  20
26003.635248401228
  30
0.0
  40
30585.178181143485
  50
-55.42025794990719
  51
-55.38897195431819
  39
0.0
  210
0.0
  220
0.0
  230
1.0
  0
ARC
  100
AcDbEntity
  8
0
  100
AcDbArc
  10
-18416.290027431984
  20
27800.97484153893
  30
0.0
  40
32768.99410493185
  50
-55.38897195431819
  51
-55.35874642384274
  39
0.0
  210
0.0
  220
0.0
  230
1.0
  0
ARC
  100
AcDbEntity
  8
0
  100
AcDbArc
  10
-20072.166442292993
  20
25401.58206040043
  30
0.0
  40
31853.089130432505
  50
-50.44891850199799
  51
-50.418692971522546
  39
0.0
  210
0.0
  220
0.0
  230
1.0
  0
ARC
  100
AcDbEntity
  8
0
  100
AcDbArc
  10
-23570.853864971847
  20
29633.57910021936
  30
0.0
  40
37344.046481081605
  50
-50.418692971522546
  51
-50.39077788219399
  39
0.0
  210
0.0
  220
0.0
  230
1.0
  0
ARC
  100
AcDbEntity
  8
0
  100
AcDbArc
  10
-24111.362287079814
  20
26075.547305920965
  30
0.0
  40
35050.47982860123
  50
-45.99767890940793
  51
-45.96976382007938
  39
0.0
  210
0.0
  220
0.0
  230
1.0
  0
ARC
  100
AcDbEntity
  8
0
  100
AcDbArc
  10
-31559.766605695233
  20
33780.45457964061
  30
0.0
  40
45767.024187217336
  50
-45.96976382007938
  51
-45.94533459633377
  39
0.0
  210
0.0
  220
0.0
  230
1.0
  0
ARC
  100
AcDbEntity
  8
0
  100
AcDbArc
  10
-38646.843413283925
  20
35480.826217564594
  30
0.0
  40
52064.10150720212
  50
-41.637307996051916
  51
-41.61287877230633
  39
0.0
  210
0.0
  220
0.0
  230
1.0
  0
ARC
  100
AcDbEntity
  8
0
  100
AcDbArc
  10
-68234.09882252026
  20
61761.51607283398
  30
0.0
  40
91637.83448654391
  50
-41.612878772306324
  51
-41.594465056082015
  39
0.0
  210
0.0
  220
0.0
  230
1.0
  0
ARC
  100
AcDbEntity
  8
0
  100
AcDbArc
  10
-51013.70212314853
  20
40910.79029286106
  30
0.0
  40
65050.77080527418
  50
-37.92644636229348
  51
-37.90803264606919
  39
0.0
  210
0.0
  220
0.0
  230
1.0
  0
ARC
  100
AcDbEntity
  8
0
  100
AcDbArc
  10
-125664.81193042063
  20
99041.90391591989
  30
0.0
  40
159665.8571631821
  50
-37.908032646069174
  51
-37.89627929685942
  39
0.0
  210
0.0
  220
0.0
  230
1.0
  0
ARC
  100
AcDbEntity
  8
0
  100
AcDbArc
  10
-58181.57070882347
  20
42567.17569474393
  30
0.0
  40
71792.13111148479
  50
-35.40943219114344
  51
-35.397678841933676
  39
0.0
  210
0.0
  220
0.0
  230
1.0
  0
ARC
  100
AcDbEntity
  8
0
  100
AcDbArc
  10
-952819.4672810835
  20
678298.6892579639
  30
0.0
  40
1169303.6450923725
  50
-35.397678841933676
  51
-35.39476653992282
  39
0.0
  210
0.0
  220
0.0
  230
1.0
  0
ARC
  100
AcDbEntity
  8
0
  100
AcDbArc
  10
-1116877.7128522794
  20
776482.6875308442
  30
0.0
  40
1359992.1609607046
  50
-34.763403857624226
  51
-34.76049155561338
  39
0.0
  210
0.0
  220
0.0
  230
1.0
  0
ARC
  100
AcDbEntity
  8
0
  100
AcDbArc
  10
-158578.7746778725
  20
111427.10135838384
  30
0.0
  40
193529.2221557929
  50
-34.760491555613385
  51
-34.752771306087666
  39
0.0
  210
0.0
  220
0.0
  230
1.0
  0
ARC
  100
AcDbEntity
  8
0
  100
AcDbArc
  10
-256717.80973760696
  20
192299.7233243429
  30
0.0
  40
320434.6995120227
  50
-36.63123317181708
  51
-36.62351292229137
  39
0.0
  210
0.0
  220
0.0
  230
1.0
  0
ARC
  100
AcDbEntity
  8
0
  100
AcDbArc
  10
-63771.442279144525
  20
48882.21405371869
  30
0.0
  40
80024.87716525258
  50
-36.623512922291376
  51
-36.60806434109332
  39
0.0
  210
0.0
  220
0.0
  230
1.0
  0
ARC
  100
AcDbEntity
  8
0
  100
AcDbArc
  10
-72825.84487121737
  20
61774.04798190504
  30
0.0
  40
95109.89706213874
  50
-39.590906474417984
  51
-39.57545789321995
  39
0.0
  210
0.0
  220
0.0
  230
1.0
  0
ARC
  100
AcDbEntity
  8
0
  100
AcDbArc
  10
-36695.0862332885
  20
31910.143643353018
  30
0.0
  40
48234.69570689698
  50
-39.575457893219934
  51
-39.553764789864715
  39
0.0
  210
0.0
  220
0.0
  230
1.0
  0
ARC
  100
AcDbEntity
  8
0
  100
AcDbArc
  10
-42737.782527985735
  20
41749.22406012673
  30
0.0
  40
59277.314365945065
  50
-43.16940178791162
  51
-43.14770868455639
  39
0.0
  210
0.0
  220
0.0
  230
1.0
  0
ARC
  100
AcDbEntity
  8
0
  100
AcDbArc
  10
-24299.51983973116
  20
24466.182959370573
  30
0.0
  40
34005.3330298585
  50
-43.14770868455639
  51
-43.11906740404911
  39
0.0
  210
0.0
  220
0.0
  230
1.0
  0
ARC
  100
AcDbEntity
  8
0
  100
AcDbArc
  10
-25944.98312140514
  20
30335.334855593544
  30
0.0
  40
39345.13174511712
  50
-47.72485215947981
  51
-47.696210878972515
  39
0.0
  210
0.0
  220
0.0
  230
1.0
  0
ARC
  100
AcDbEntity
  8
0
  100
AcDbArc
  10
-15809.726162679799
  20
19198.312590369533
  30
0.0
  40
24286.68897849992
  50
-47.696210878972515
  51
-47.65975615788279
  39
0.0
  210
0.0
  220
0.0
  230
1.0
  0
ARC
  100
AcDbEntity
  8
0
  100
AcDbArc
  10
-15834.431738040526
  20
23261.732567329105
  30
0.0
  40
27441.832114173878
  50
-53.34520600519425
  51
-53.30875128410452
  39
0.0
  210
0.0
  220
0.0
  230
1.0
  0
ARC
  100
AcDbEntity
  8
0
  100
AcDbArc
  10
-10134.254921599815
  20
15611.92049003798
  30
0.0
  40
17901.82998856838
  50
-53.30875128410452
  51
-53.26361647384411
  39
0.0
  210
0.0
  220
0.0
  230
1.0
  0
ARC
  100
AcDbEntity
  8
0
  100
AcDbArc
  10
-9231.866591469545
  20
18330.709139051614
  30
0.0
  40
19681.630761184384
  50
-60.11928658474395
  51
-60.07415177448352
  39
0.0
  210
0.0
  220
0.0
  230
1.0
  0
ARC
  100
AcDbEntity
  8
0
  100
AcDbArc
  10
-6241.463592457462
  20
13135.663791658635
  30
0.0
  40
13687.382997038332
  50
-60.074151774483525
  51
-60.0200287626604
  39
0.0
  210
0.0
  220
0.0
  230
1.0
  0
ARC
  100
AcDbEntity
  8
0
  100
AcDbArc
  10
-4883.641150723473
  20
14859.90602155202
  30
0.0
  40
14644.88446301629
  50
-68.01833416411786
  51
-67.96421115229474
  39
0.0
  210
0.0
  220
0.0
  230
1.0
  0
ARC
  100
AcDbEntity
  8
0
  100
AcDbArc
  10
-3545.663138318688
  20
11554.240608956017
  30
0.0
  40
11078.708782863649
  50
-67.96421115229475
  51
-67.90198393751227
  39
0.0
  210
0.0
  220
0.0
  230
1.0
  0
ARC
  100
AcDbEntity
  8
0
  100
AcDbArc
  10
-1970.2350330147742
  20
12321.050741683574
  30
0.0
  40
11332.179751182226
  50
-76.77620133276609
  51
-76.71397411798361
  39
0.0
  210
0.0
  220
0.0
  230
1.0
  0
ARC
  100
AcDbEntity
  8
0
  100
AcDbArc
  10
-1562.069378619034
  20
10592.505546479964
  30
0.0
  40
9556.09763222213
  50
-76.71397411798361
  51
-76.64621046572536
  39
0.0
  210
0.0
  220
0.0
  230
1.0
  0
ARC
  100
AcDbEntity
  8
0
  100
AcDbArc
  10
-29.470202274942153
  20
10710.129185862035
  30
0.0
  40
9439.477724089145
  50
-85.902374778718
  51
-85.83461112645973
  39
0.0
  210
0.0
  220
0.0
  230
1.0
  0
ARC
  100
AcDbEntity
  8
0
  100
AcDbArc
  10
5.846139628618175
  20
10225.201780566678
  30
0.0
  40
8953.266008463188
  50
-85.83461112645973
  51
-85.76503182801682
  39
0.0
  210
0.0
  220
0.0
  230
1.0
  0
ARC
  100
AcDbEntity
  8
0
  100
AcDbArc
  10
1434.0000739990828
  20
10072.352903291543
  30
0.0
  40
8809.422901745518
  50
-94.99472222613491
  51
-94.92514292769198
  39
0.0
  210
0.0
  220
0.0
  230
1.0
  0
ARC
  100
AcDbEntity
  8
0
  100
AcDbArc
  10
1481.3340158406822
  20
10621.647004176373
  30
0.0
  40
9360.75266814412
  50
-94.92514292769198
  51
-94.85764376457736
  39
0.0
  210
0.0
  220
0.0
  230
1.0
  0
ARC
  100
AcDbEntity
  8
0
  100
AcDbArc
  10
2759.5685508806073
  20
9844.552526941967
  30
0.0
  40
8797.259098982531
  50
-103.61541376988079
  51
-103.54791460676617
  39
0.0
  210
0.0
  220
0.0
  230
1.0
  0
ARC
  100
AcDbEntity
  8
0
  100
AcDbArc
  10
3112.4360683593904
  20
11308.955460714362
  30
0.0
  40
10303.576275852276
  50
-103.54791460676617
  51
-103.4855442711604
  39
0.0
  210
0.0
  220
0.0
  230
1.0
  0
ARC
  100
AcDbEntity
  8
0
  100
AcDbArc
  10
4081.2419661030754
  20
9947.086111548793
  30
0.0
  40
9290.971721446174
  50
-111.27778355047991
  51
-111.21541321487413
  39
0.0
  210
0.0
  220
0.0
  230
1.0
  0
ARC
  100
AcDbEntity
  8
0
  100
AcDbArc
  10
4930.449510520065
  20
12134.72817558515
  30
0.0
  40
11637.65688435917
  50
-111.21541321487413
  51
-111.15968490507534
  39
0.0
  210
0.0
  220
0.0
  230
1.0
  0
ARC
  100
AcDbEntity
  8
0
  100
AcDbArc
  10
5707.569398649767
  20
10683.759431914965
  30
0.0
  40
10638.54227390713
  50
-117.89912222791996
  51
-117.84339391812118
  39
0.0
  210
0.0
  220
0.0
  230
1.0
  0
ARC
  100
AcDbEntity
  8
0
  100
AcDbArc
  10
7280.072946635311
  20
13660.810382409782
  30
0.0
  40
14005.380519244916
  50
-117.84339391812118
  51
-117.79482376499418
  39
0.0
  210
0.0
  220
0.0
  230
1.0
  0
ARC
  100
AcDbEntity
  8
0
  100
AcDbArc
  10
9792.030500207211
  20
14514.135590032889
  30
0.0
  40
16035.694408900648
  50
-124.32694641049565
  51
-124.27837625736865
  39
0.0
  210
0.0
  220
0.0
  230
1.0
  0
ARC
  100
AcDbEntity
  8
0
  100
AcDbArc
  10
14280.47536751985
  20
21099.28694011435
  30
0.0
  40
24005.032877706257
  50
-124.27837625736866
  51
-124.23867884474602
  39
0.0
  210
0.0
  220
0.0
  230
1.0
  0
ARC
  100
AcDbEntity
  8
0
  100
AcDbArc
  10
13811.727488957453
  20
16699.883597570228
  30
0.0
  40
20212.41879911824
  50
-130.16742580160786
  51
-130.12772838898525
  39
0.0
  210
0.0
  220
0.0
  230
1.0
  0
ARC
  100
AcDbEntity
  8
0
  100
AcDbArc
  10
20788.717089784983
  20
24977.19152041767
  30
0.0
  40
31037.953905508522
  50
-130.12772838898522
  51
-130.09569338365264
  39
0.0
  210
0.0
  220
0.0
  230
1.0
  0
ARC
  100
AcDbEntity
  8
0
  100
AcDbArc
  10
24330.6903412267
  20
24500.27380150847
  30
0.0
  40
33092.17726760375
  50
-135.3260140927915
  51
-135.29397908745895
  39
0.0
  210
0.0
  220
0.0
  230
1.0
  0
ARC
  100
AcDbEntity
  8
0
  100
AcDbArc
  10
43917.543603812504
  20
43887.154858597096
  30
0.0
  40
60651.13185321476
  50
-135.2939790874589
  51
-135.27031618496756
  39
0.0
  210
0.0
  220
0.0
  230
1.0
  0
ARC
  100
AcDbEntity
  8
0
  100
AcDbArc
  10
35187.7679351818
  20
30467.786705664566
  30
0.0
  40
45132.628133921935
  50
-139.57783942169772
  51
-139.55417651920638
  39
0.0
  210
0.0
  220
0.0
  230
1.0
  0
ARC
  100
AcDbEntity
  8
0
  100
AcDbArc
  10
67770.77983036617
  20
58243.067820267395
  30
0.0
  40
87947.56600795065
  50
-139.55417651920638
  51
-139.5372252815708
  39
0.0
  210
0.0
  220
0.0
  230
1.0
  0
ARC
  100
AcDbEntity
  8
0
  100
AcDbArc
  10
58732.26207944019
  20
45119.82742545056
  30
0.0
  40
72671.25618875919
  50
-142.7864421628923
  51
-142.7694909252567
  39
0.0
  210
0.0
  220
0.0
  230
1.0
  0
ARC
  100
AcDbEntity
  8
0
  100
AcDbArc
  10
181084.37033077487
  20
138092.8604340561
  30
0.0
  40
226339.80619286894
  50
-142.7694909252567
  51
-142.75988581675782
  39
0.0
  210
0.0
  220
0.0
  230
1.0
  0
ARC
  100
AcDbEntity
  8
0
  100
AcDbArc
  10
477725.3896123019
  20
335679.4437484577
  30
0.0
  40
582492.2055650916
  50
-144.94548797752003
  51
-144.93588286902113
  39
0.0
  210
0.0
  220
0.0
  230
1.0
  0
ARC
  100
AcDbEntity
  8
0
  100
AcDbArc
  10
351935.0317227748
  20
247390.13957956087
  30
0.0
  40
428810.0160680542
  50
-144.93588286902113
  51
-144.92468810679082
  39
0.0
  210
0.0
  220
0.0
  230
1.0
  0
ARC
  100
AcDbEntity
  8
0
  100
AcDbArc
  10
139838.75307223364
  20
108306.50756577398
  30
0.0
  40
175491.19698185354
  50
-142.2935728357476
  51
-142.2823780735173
  39
0.0
  210
0.0
  220
0.0
  230
1.0
  0
ARC
  100
AcDbEntity
  8
0
  100
AcDbArc
  10
54256.13482069377
  20
42118.688034750834
  30
0.0
  40
67300.5689170341
  50
-142.2823780735173
  51
-142.26430078975238
  39
0.0
  210
0.0
  220
0.0
  230
1.0
  0
ARC
  100
AcDbEntity
  8
0
  100
AcDbArc
  10
63902.063576944936
  20
55863.64060199982
  30
0.0
  40
83489.01959807126
  50
-138.8538790895097
  51
-138.83580180574484
  39
0.0
  210
0.0
  220
0.0
  230
1.0
  0
ARC
  100
AcDbEntity
  8
0
  100
AcDbArc
  10
38023.56344162013
  20
33237.2738684943
  30
0.0
  40
49113.89427738201
  50
-138.83580180574484
  51
-138.81223256070075
  39
0.0
  210
0.0
  220
0.0
  230
1.0
  0
ARC
  100
AcDbEntity
  8
0
  100
AcDbArc
  10
36490.32351493735
  20
36563.8570962332
  30
0.0
  40
50273.59574300215
  50
-134.8051350167414
  51
-134.7815657716973
  39
0.0
  210
0.0
  220
0.0
  230
1.0
  0
ARC
  100
AcDbEntity
  8
0
  100
AcDbArc
  10
27284.23726371545
  20
27287.307367223893
  30
0.0
  40
37204.30353034888
  50
-134.7815657716973
  51
-134.754167759315
  39
0.0
  210
0.0
  220
0.0
  230
1.0
  0
ARC
  100
AcDbEntity
  8
0
  100
AcDbArc
  10
24340.11583158401
  20
28057.86286524103
  30
0.0
  40
35775.6849877933
  50
-130.5331361590437
  51
-130.5057381466614
  39
0.0
  210
0.0
  220
0.0
  230
1.0
  0
ARC
  100
AcDbEntity
  8
0
  100
AcDbArc
  10
20775.24215158667
  20
23884.77842040699
  30
0.0
  40
30287.24639944655
  50
-130.50573814666143
  51
-130.47596099575267
  39
0.0
  210
0.0
  220
0.0
  230
1.0
  0
ARC
  100
AcDbEntity
  8
0
  100
AcDbArc
  10
21818.83561998961
  20
29671.025620988556
  30
0.0
  40
35489.98201302841
  50
-125.68818220489645
  51
-125.65840505398774
  39
0.0
  210
0.0
  220
0.0
  230
1.0
  0
ARC
  100
AcDbEntity
  8
0
  100
AcDbArc
  10
20016.217753553457
  20
27158.570450005995
  30
0.0
  40
32397.755928378097
  50
-125.65840505398774
  51
-125.62723923331986
  39
0.0
  210
0.0
  220
0.0
  230
1.0
  0
ARC
  100
AcDbEntity
  8
0
  100
AcDbArc
  10
15088.39025780355
  20
24444.76925877213
  30
0.0
  40
27428.783771322418
  50
-120.55580504875468
  51
-120.52463922808684
  39
0.0
  210
0.0
  220
0.0
  230
1.0
  0
ARC
  100
AcDbEntity
  8
0
  100
AcDbArc
  10
14953.345067406239
  20
24215.73330285177
  30
0.0
  40
27162.899073466753
  50
-120.52463922808684
  51
-120.49332124517281
  39
0.0
  210
0.0
  220
0.0
  230
1.0
  0
ARC
  100
AcDbEntity
  8
0
  100
AcDbArc
  10
13759.442748791584
  20
27322.781498753426
  30
0.0
  40
29350.243855794975
  50
-115.40050135253334
  51
-115.36918336961931
  39
0.0
  210
0.0
  220
0.0
  230
1.0
  0
ARC
  100
AcDbEntity
  8
0
  100
AcDbArc
  10
14308.616058898115
  20
28480.94504443259
  30
0.0
  40
30632.013773944673
  50
-115.36918336961931
  51
-115.33852762529769
  39
0.0
  210
0.0
  220
0.0
  230
1.0
  0
ARC
  100
AcDbEntity
  8
0
  100
AcDbArc
  10
11716.131946502624
  20
30060.326474570338
  30
0.0
  40
31096.850945991147
  50
-109.76727010084264
  51
-109.736614356521
  39
0.0
  210
0.0
  220
0.0
  230
1.0
  0
ARC
  100
AcDbEntity
  8
0
  100
AcDbArc
  10
12602.1966765417
  20
32530.035192157593
  30
0.0
  40
33720.69771277188
  50
-109.736614356521
  51
-109.70717544184386
  39
0.0
  210
0.0
  220
0.0
  230
1.0
  0
ARC
  100
AcDbEntity
  8
0
  100
AcDbArc
  10
8942.23639740669
  20
31532.51822490087
  30
0.0
  40
31700.267135065395
  50
-104.07846158508595
  51
-104.04902267040877
  39
0.0
  210
0.0
  220
0.0
  230
1.0
  0
ARC
  100
AcDbEntity
  8
0
  100
AcDbArc
  10
9639.85905229141
  20
34320.36605028697
  30
0.0
  40
34574.07521253306
  50
-104.04902267040877
  51
-104.02083378077656
  39
0.0
  210
0.0
  220
0.0
  230
1.0
  0
ARC
  100
AcDbEntity
  8
0
  100
AcDbArc
  10
5826.482707084999
  20
30100.959635982195
  30
0.0
  40
29677.519647575828
  50
-98.84455880404248
  51
-98.81636991441025
  39
0.0
  210
0.0
  220
0.0
  230
1.0
  0
ARC
  100
AcDbEntity
  8
0
  100
AcDbArc
  10
6113.196005400151
  20
31949.521307918967
  30
0.0
  40
31548.183906705304
  50
-98.81636991441025
  51
-98.78902953181806
  39
0.0
  210
0.0
  220
0.0
  230
1.0
  0
ARC
  100
AcDbEntity
  8
0
  100
AcDbArc
  10
3444.8832418766215
  20
31586.894400004858
  30
0.0
  40
30890.169327408243
  50
-93.99507963463022
  51
-93.96773925203802
  39
0.0
  210
0.0
  220
0.0
  230
1.0
  0
ARC
  100
AcDbEntity
  8
0
  100
AcDbArc
  10
3511.715661057774
  20
32550.438688598442
  30
0.0
  40
31856.028617540567
  50
-93.96773925203802
  51
-93.9408165332113
  39
0.0
  210
0.0
  220
0.0
  230
1.0
  0
ARC
  100
AcDbEntity
  8
0
  100
AcDbArc
  10
1457.7559710760959
  20
8561.600336603058
  30
0.0
  40
7793.044960402243
  50
-90.99537150335001
  51
-90.96844878452329
  39
0.0
  210
0.0
  220
0.0
  230
1.0
  0
ARC
  100
AcDbEntity
  8
0
  100
AcDbArc
  10
1458.0072928050731
  20
8576.467723760978
  30
0.0
  40
7807.914471608564
  50
-90.96844878452329
  51
-90.94155171393191
  39
0.0
  210
0.0
  220
0.0
  230
1.0
  0
ARC
  100
AcDbEntity
  8
0
  100
AcDbArc
  10
1338.6948953918286
  20
2897.6569852797847
  30
0.0
  40
2128.0684878444035
  50
-90.24206415208423
  51
-90.21516708149285
  39
0.0
  210
0.0
  220
0.0
  230
1.0
  0
ARC
  100
AcDbEntity
  8
0
  100
AcDbArc
  10
1338.695787524499
  20
2897.8945457659793
  30
0.0
  40
2128.3060500057454
  50
-90.21516708149285
  51
-90.18827151207297
  39
0.0
  210
0.0
  220
0.0
  230
1.0
  0
ARC
  100
AcDbEntity
  8
0
  100
AcDbArc
  10
1332.3682936479847
  20
1479.010262624704
  30
0.0
  40
709.4105893021078
  50
-90.05379111794755
  51
-90.02689554852766
  39
0.0
  210
0.0
  220
0.0
  230
1.0
  0
ARC
  100
AcDbEntity
  8
0
  100
AcDbArc
  10
1332.0352850853828
  20
769.5997905622929
  30
0.0
  40
3.9079942311323524E-5
  50
-90.0268955350841
  51
89.94620892368924
  39
0.0
  210
0.0
  220
0.0
  230
1.0
  0
TEXT
  100
AcDbEntity
  8
0
  100
AcDbText
  10
0.0
  20
-159.69762655748116
  30
0.0
  40
79.84881327874058
  1
PARTNUMBER:P0002
  39
0.0
  50
0.0
  210
0.0
  220
0.0
  230
1.0
  0
TEXT
  100
AcDbEntity
  8
0
  100
AcDbText
  10
0.0
  20
-292.7789820220488
  30
0.0
  40
79.84881327874058
  1
THICKNESS:20
  39
0.0
  50
0.0
  210
0.0
  220
0.0
  230
1.0
  0
TEXT
  100
AcDbEntity
  8
0
  100
AcDbText
  10
0.0
  20
-425.8603374866164
  30
0.0
  40
79.84881327874058
  1
MATERIAL:16MnR
  39
0.0
  50
0.0
  210
0.0
  220
0.0
  230
1.0
  0
TEXT
  100
AcDbEntity
  8
0
  100
AcDbText
  10
0.0
  20
-558.941692951184
  30
0.0
  40
79.84881327874058
  1
QUANTITY:5
  39
0.0
  50
0.0
  210
0.0
  220
0.0
  230
1.0
  0
ENDSEC
  0
SECTION
  2
OBJECTS
  0
ENDSEC
  0
EOF
