  0
SECTION
  2
HEADER
  9
$ACADVER
  1
AC1009
  9
$INSBASE
  10
0.0
  20
0.0
  30
0.0
  9
$EXTMIN
  10
-800.0
  20
-800.0
  9
$EXTMAX
  10
800.0
  20
800.0
  9
$LIMMIN
  10
-800.0
  20
-800.0
  9
$LIMMAX
  10
800.0
  20
800.0
  0
ENDSEC
  0
SECTION
  2
CLASSES
  0
ENDSEC
  0
SECTION
  2
TABLES
  0
ENDSEC
  0
SECTION
  2
BLOCKS
  0
ENDSEC
  0
SECTION
  2
ENTITIES
  0
LINE
  100
AcDbEntity
  8
0
  100
AcDbLine
  10
0.0
  20
0.0
  30
0.0
  11
0.0
  21
800.0
  31
0.0
  39
0.0
  210
0.0
  220
0.0
  230
1.0
  0
LINE
  100
AcDbEntity
  8
0
  100
AcDbLine
  10
0.0
  20
0.0
  30
0.0
  11
1212.6547642856601
  21
0.0
  31
0.0
  39
0.0
  210
0.0
  220
0.0
  230
1.0
  0
LINE
  100
AcDbEntity
  8
0
  100
AcDbLine
  10
1212.6547642856601
  20
0.0
  30
0.0
  11
1212.6547642856601
  21
800.0
  31
0.0
  39
0.0
  210
0.0
  220
0.0
  230
1.0
  0
ARC
  100
AcDbEntity
  8
0
  100
AcDbArc
  10
6.970902523154326E-7
  20
799.9998049815082
  30
0.0
  40
1.9501973767328872E-4
  50
-89.81567891186516
  51
90.20480190839017
  39
0.0
  210
0.0
  220
0.0
  230
1.0
  0
ARC
  100
AcDbEntity
  8
0
  100
AcDbArc
  10
-19.64883995063058
  20
6907.774933624217
  30
0.0
  40
6107.806928946839
  50
-89.81567891187079
  51
-89.79520271685041
  39
0.0
  210
0.0
  220
0.0
  230
1.0
  0
ARC
  100
AcDbEntity
  8
0
  100
AcDbArc
  10
-5365.824493295121
  20
67640.67705252478
  30
0.0
  40
67055.87723827353
  50
-85.40840227696658
  51
-85.38792608194618
  39
0.0
  210
0.0
  220
0.0
  230
1.0
  0
ARC
  100
AcDbEntity
  8
0
  100
AcDbArc
  10
-7136.052721682819
  20
89584.69744336301
  30
0.0
  40
89071.18416082414
  50
-85.38792608194618
  51
-85.37015969699875
  39
0.0
  210
0.0
  220
0.0
  230
1.0
  0
ARC
  100
AcDbEntity
  8
0
  100
AcDbArc
  10
-12890.803072140463
  20
62439.492975586225
  30
0.0
  40
62979.93700486466
  50
-78.13934711512621
  51
-78.12158073017879
  39
0.0
  210
0.0
  220
0.0
  230
1.0
  0
ARC
  100
AcDbEntity
  8
0
  100
AcDbArc
  10
-32135.314415431974
  20
153932.02210825644
  30
0.0
  40
156474.50424775094
  50
-78.12158073017879
  51
-78.11030931659826
  39
0.0
  210
0.0
  220
0.0
  230
1.0
  0
ARC
  100
AcDbEntity
  8
0
  100
AcDbArc
  10
-86508.39995912938
  20
290928.8610669472
  30
0.0
  40
302766.9764497046
  50
-73.37744163504506
  51
-73.36617022146451
  39
0.0
  210
0.0
  220
0.0
  230
1.0
  0
ARC
  100
AcDbEntity
  8
0
  100
AcDbArc
  10
-78166.09681055456
  20
263005.3922735692
  30
0.0
  40
273623.9819008
  50
-73.36617022146451
  51
-73.35431374732882
  39
0.0
  210
0.0
  220
0.0
  230
1.0
  0
ARC
  100
AcDbEntity
  8
0
  100
AcDbArc
  10
-28776.138871452782
  20
132852.608405735
  30
0.0
  40
135150.711606832
  50
-77.61360264276101
  51
-77.6017461686253
  39
0.0
  210
0.0
  220
0.0
  230
1.0
  0
ARC
  100
AcDbEntity
  8
0
  100
AcDbArc
  10
-8946.553575035126
  20
42649.37442043005
  30
0.0
  40
42793.601028189594
  50
-77.6017461686253
  51
-77.58067564581647
  39
0.0
  210
0.0
  220
0.0
  230
1.0
  0
ARC
  100
AcDbEntity
  8
0
  100
AcDbArc
  10
-5367.439275617325
  20
61557.73060520198
  30
0.0
  40
60960.583397823175
  50
-84.7063103846834
  51
-84.68523986187458
  39
0.0
  210
0.0
  220
0.0
  230
1.0
  0
ARC
  100
AcDbEntity
  8
0
  100
AcDbArc
  10
-3567.3031616760177
  20
42207.05277320999
  30
0.0
  40
41526.35527869629
  50
-84.68523986187458
  51
-84.659710617391
  39
0.0
  210
0.0
  220
0.0
  230
1.0
  0
ARC
  100
AcDbEntity
  8
0
  100
AcDbArc
  10
2426.1668163754503
  20
42526.81780912174
  30
0.0
  40
41720.21101889593
  50
-92.92452261039111
  51
-92.8989933659075
  39
0.0
  210
0.0
  220
0.0
  230
1.0
  0
ARC
  100
AcDbEntity
  8
0
  100
AcDbArc
  10
2884.2998329378506
  20
51573.64250764167
  30
0.0
  40
50778.628264011924
  50
-92.8989933659075
  51
-92.87585297305537
  39
0.0
  210
0.0
  220
0.0
  230
1.0
  0
ARC
  100
AcDbEntity
  8
0
  100
AcDbArc
  10
9055.183026933475
  20
45616.980265628896
  30
0.0
  40
45599.26552901117
  50
-101.022785337646
  51
-100.99964494479386
  39
0.0
  210
0.0
  220
0.0
  230
1.0
  0
ARC
  100
AcDbEntity
  8
0
  100
AcDbArc
  10
27006.716409180463
  20
137972.66898110093
  30
0.0
  40
139683.4341700907
  50
-100.99964494479386
  51
-100.98642355231468
  39
0.0
  210
0.0
  220
0.0
  230
1.0
  0
ARC
  100
AcDbEntity
  8
0
  100
AcDbArc
  10
62759.27973248852
  20
209433.6151256023
  30
0.0
  40
217710.35372913367
  50
-106.64823269839265
  51
-106.63501130591344
  39
0.0
  210
0.0
  220
0.0
  230
1.0
  0
ARC
  100
AcDbEntity
  8
0
  100
AcDbArc
  10
105367.50758723846
  20
352041.72374939354
  30
0.0
  40
366547.62636665994
  50
-106.63501130591344
  51
-106.62482183736577
  39
0.0
  210
0.0
  220
0.0
  230
1.0
  0
ARC
  100
AcDbEntity
  8
0
  100
AcDbArc
  10
42698.39020141082
  20
193403.05351021842
  30
0.0
  40
197156.37359577426
  50
-102.35983531799131
  51
-102.34964584944362
  39
0.0
  210
0.0
  220
0.0
  230
1.0
  0
ARC
  100
AcDbEntity
  8
0
  100
AcDbArc
  10
14670.490657916685
  20
65388.52121303139
  30
0.0
  40
66109.49789059868
  50
-102.34964584944362
  51
-102.33204940123608
  39
0.0
  210
0.0
  220
0.0
  230
1.0
  0
ARC
  100
AcDbEntity
  8
0
  100
AcDbArc
  10
8234.922731396866
  20
88247.80280210811
  30
0.0
  40
87780.33931026784
  50
-95.02183968284209
  51
-95.00424323463453
  39
0.0
  210
0.0
  220
0.0
  230
1.0
  0
ARC
  100
AcDbEntity
  8
0
  100
AcDbArc
  10
6245.5670689878825
  20
65528.74235347269
  30
0.0
  40
64974.34791282342
  50
-95.00424323463453
  51
-94.98379043899422
  39
0.0
  210
0.0
  220
0.0
  230
1.0
  0
ARC
  100
AcDbEntity
  8
0
  100
AcDbArc
  10
-2612.4628644014074
  20
63073.86563478854
  30
0.0
  40
62356.67892272749
  50
-87.0460425684331
  51
-87.02558977279277
  39
0.0
  210
0.0
  220
0.0
  230
1.0
  0
ARC
  100
AcDbEntity
  8
0
  100
AcDbArc
  10
-3178.056825765599
  20
73959.05894431926
  30
0.0
  40
73256.5564410753
  50
-87.02558977279277
  51
-87.00671981550661
  39
0.0
  210
0.0
  220
0.0
  230
1.0
  0
ARC
  100
AcDbEntity
  8
0
  100
AcDbArc
  10
-12075.358309479594
  20
68067.90395697887
  30
0.0
  40
68458.07374709833
  50
-79.28952783355021
  51
-79.27065787626405
  39
0.0
  210
0.0
  220
0.0
  230
1.0
  0
ARC
  100
AcDbEntity
  8
0
  100
AcDbArc
  10
-30423.71647605656
  20
164901.9996021998
  30
0.0
  40
167015.18575245683
  50
-79.27065787626405
  51
-79.25857680981812
  39
0.0
  210
0.0
  220
0.0
  230
1.0
  0
ARC
  100
AcDbEntity
  8
0
  100
AcDbArc
  10
-86652.59462195939
  20
296407.1633076224
  30
0.0
  40
308232.0166336207
  50
-73.53604857720416
  51
-73.52396751075821
  39
0.0
  210
0.0
  220
0.0
  230
1.0
  0
ARC
  100
AcDbEntity
  8
0
  100
AcDbArc
  10
-76142.54768613336
  20
260871.2592846844
  30
0.0
  40
271174.4727144572
  50
-73.52396751075821
  51
-73.51108739563668
  39
0.0
  210
0.0
  220
0.0
  230
1.0
  0
ARC
  100
AcDbEntity
  8
0
  100
AcDbArc
  10
-28223.204412024646
  20
150174.047464372
  30
0.0
  40
152124.23127932934
  50
-78.99179647813735
  51
-78.97891636301578
  39
0.0
  210
0.0
  220
0.0
  230
1.0
  0
ARC
  100
AcDbEntity
  8
0
  100
AcDbArc
  10
-8049.182509611139
  20
46591.217026258804
  30
0.0
  40
46595.11718615611
  50
-78.97891636301578
  51
-78.95564355746147
  39
0.0
  210
0.0
  220
0.0
  230
1.0
  0
ARC
  100
AcDbEntity
  8
0
  100
AcDbArc
  10
-1184.1402170347005
  20
58638.81065740245
  30
0.0
  40
57816.481549185795
  50
-87.956997761209
  51
-87.93372495565467
  39
0.0
  210
0.0
  220
0.0
  230
1.0
  0
ARC
  100
AcDbEntity
  8
0
  100
AcDbArc
  10
-872.1602690425688
  20
49991.66348762553
  30
0.0
  40
49163.708255973375
  50
-87.93372495565467
  51
-87.90848711148197
  39
0.0
  210
0.0
  220
0.0
  230
1.0
  0
ARC
  100
AcDbEntity
  8
0
  100
AcDbArc
  10
5465.066541178694
  20
40330.359876025876
  30
0.0
  40
39730.24004742716
  50
-96.56586098257893
  51
-96.5406231384062
  39
0.0
  210
0.0
  220
0.0
  230
1.0
  0
ARC
  100
AcDbEntity
  8
0
  100
AcDbArc
  10
8121.854869922522
  20
63502.60994998208
  30
0.0
  40
63054.2983931292
  50
-96.5406231384062
  51
-96.5205896998234
  39
0.0
  210
0.0
  220
0.0
  230
1.0
  0
ARC
  100
AcDbEntity
  8
0
  100
AcDbArc
  10
11468.91664199404
  20
42844.494870102884
  30
0.0
  40
43283.07670931622
  50
-104.04966478058924
  51
-104.02963134200643
  39
0.0
  210
0.0
  220
0.0
  230
1.0
  0
ARC
  100
AcDbEntity
  8
0
  100
AcDbArc
  10
100518.35920903858
  20
399217.04811606737
  30
0.0
  40
410612.9011567046
  50
-104.02963134200643
  51
-104.0231270764567
  39
0.0
  210
0.0
  220
0.0
  230
1.0
  0
ARC
  100
AcDbEntity
  8
0
  100
AcDbArc
  10
132527.04553430792
  20
431625.26623184007
  30
0.0
  40
450409.41843327705
  50
-106.97589531982236
  51
-106.96939105427262
  39
0.0
  210
0.0
  220
0.0
  230
1.0
  0
ARC
  100
AcDbEntity
  8
0
  100
AcDbArc
  10
56855.99193164372
  20
183642.65764988193
  30
0.0
  40
191138.35851248697
  50
-106.96939105427262
  51
-106.95940651407201
  39
0.0
  210
0.0
  220
0.0
  230
1.0
  0
ARC
  100
AcDbEntity
  8
0
  100
AcDbArc
  10
39735.814383630866
  20
168871.39007398166
  30
0.0
  40
172438.34540526711
  50
-102.94666048670318
  51
-102.93667594650258
  39
0.0
  210
0.0
  220
0.0
  230
1.0
  0
ARC
  100
AcDbEntity
  8
0
  100
AcDbArc
  10
14949.027473969458
  20
60964.05117576418
  30
0.0
  40
61720.78314254514
  50
-102.93667594650258
  51
-102.91998698624573
  39
0.0
  210
0.0
  220
0.0
  230
1.0
  0
ARC
  100
AcDbEntity
  8
0
  100
AcDbArc
  10
11470.165298275746
  20
91156.47642704635
  30
0.0
  40
90938.26011184085
  50
-96.51699039122694
  51
-96.50030143097005
  39
0.0
  210
0.0
  220
0.0
  230
1.0
  0
ARC
  100
AcDbEntity
  8
0
  100
AcDbArc
  10
8176.297324627164
  20
62247.92043191543
  30
0.0
  40
61842.65604608122
  50
-96.50030143097005
  51
-96.48006385301164
  39
0.0
  210
0.0
  220
0.0
  230
1.0
  0
ARC
  100
AcDbEntity
  8
0
  100
AcDbArc
  10
1691.8431450746282
  20
17717.351467613804
  30
0.0
  40
16924.224831996988
  50
-91.67586735026988
  51
-91.65562977231147
  39
0.0
  210
0.0
  220
0.0
  230
1.0
  0
ARC
  100
AcDbEntity
  8
0
  100
AcDbArc
  10
1680.9903697197879
  20
17341.877944508193
  30
0.0
  40
16548.59449604655
  50
-91.65562977231147
  51
-91.63516380054102
  39
0.0
  210
0.0
  220
0.0
  230
1.0
  0
ARC
  100
AcDbEntity
  8
0
  100
AcDbArc
  10
1239.361635074796
  20
4875.279287998892
  30
0.0
  40
4075.3718834505785
  50
-90.4300327637426
  51
-90.40956679197217
  39
0.0
  210
0.0
  220
0.0
  230
1.0
  0
ARC
  100
AcDbEntity
  8
0
  100
AcDbArc
  10
1239.322091250113
  20
4869.7474535983365
  30
0.0
  40
4069.8399077140775
  50
-90.40956679197217
  51
-90.38908691562362
  39
0.0
  210
0.0
  220
0.0
  230
1.0
  0
ARC
  100
AcDbEntity
  8
0
  100
AcDbArc
  10
1216.535415862276
  20
3514.0786844277095
  30
0.0
  40
2714.081632129656
  50
-90.10240263291125
  51
-90.0819227565627
  39
0.0
  210
0.0
  220
0.0
  230
1.0
  0
ARC
  100
AcDbEntity
  8
0
  100
AcDbArc
  10
1212.6547641307202
  20
799.9999133094765
  30
0.0
  40
8.669066204023463E-5
  50
-90.08192270227698
  51
89.89759671515992
  39
0.0
  210
0.0
  220
0.0
  230
1.0
  0
TEXT
  100
AcDbEntity
  8
0
  100
AcDbText
  10
0.0
  20
-85.03244115716373
  30
0.0
  40
42.516220578581866
  1
PARTNUMBER:P0001
  39
0.0
  50
0.0
  210
0.0
  220
0.0
  230
1.0
  0
TEXT
  100
AcDbEntity
  8
0
  100
AcDbText
  10
0.0
  20
-155.8928087881335
  30
0.0
  40
42.516220578581866
  1
THICKNESS:16
  39
0.0
  50
0.0
  210
0.0
  220
0.0
  230
1.0
  0
TEXT
  100
AcDbEntity
  8
0
  100
AcDbText
  10
0.0
  20
-226.75317641910328
  30
0.0
  40
42.516220578581866
  1
MATERIAL:16MnR
  39
0.0
  50
0.0
  210
0.0
  220
0.0
  230
1.0
  0
TEXT
  100
AcDbEntity
  8
0
  100
AcDbText
  10
0.0
  20
-297.6135440500731
  30
0.0
  40
42.516220578581866
  1
QUANTITY:20
  39
0.0
  50
0.0
  210
0.0
  220
0.0
  230
1.0
  0
ENDSEC
  0
SECTION
  2
OBJECTS
  0
ENDSEC
  0
EOF
